# xmcd
#
# Track frame offsets: 
#        187
#        16615
#        37500
#        69985
#        92605
#        114530
#        137865
#        139900
#        154662
#        173040
#        199737
#        219987
#
# Disc length: 3315 seconds
#
# Revision: 2
# Processed by: cddbd v1.5.2PL0 Copyright (c) Steve Scherf et al.
# Submitted via: ExactAudioCopy v0.99pb4
#
DISCID=940cf10c
DTITLE=Mary J. Blige - What's The 411? Remix
DYEAR=1993
DGENRE=R&B
TTITLE0=Leave A Message
TTITLE1=You Don't Have To Worry (RMX ft. Craig Mack)
TTITLE2=My Love (RMX ft. Heavy D)
TTITLE3=Real Love (RMX ft. The Notorious B.I.G.)
TTITLE4=What's The 411? (RMX ft. The Notorious B.I.G.)
TTITLE5=Reminisce (RMX ft. CL Smooth)
TTITLE6=Mary and Andre
TTITLE7=Sweet Thing (RMX)
TTITLE8=Love No Limit
TTITLE9=You Remind Me
TTITLE10=Changes I've Been Going Through
TTITLE11=I Don't Want To Do Anything (ft. K-Ci)
EXTD=
EXTT0=
EXTT1=
EXTT2=
EXTT3=
EXTT4=
EXTT5=
EXTT6=
EXTT7=
EXTT8=
EXTT9=
EXTT10=
EXTT11=
PLAYORDER=
